# xmcd CD database file
#
# Track frame offsets:
#	150
#	22712
#	43805
#	64327
#	84897
#	107562
#	133075
#	153387
#	173080
#	192322
#	215797
#	235595
#	256827
#	277142
#	299265
#	325087
#
# Disc length: 4667 seconds
#
# Revision: 0
# Processed by: cddbd v1.5.1PL0 Copyright (c) Steve Scherf et al.
# Submitted via: CDex 1.51
#
DISCID=e1123910
DTITLE=PaniCrew - Voice of Joker
DYEAR=2003
DGENRE=J-Pop
TTITLE0=LILY
TTITLE1=ココロランニング〜僕達がキスをする理由〜
TTITLE2=Wild Flower〜花のしらべ〜
TTITLE3=Attitude
TTITLE4=Friendship
TTITLE5=夜のトビラ
TTITLE6=Beats P.C〜welkin〜
TTITLE7=BLOW UP
TTITLE8=Red and Blue
TTITLE9=KISSxxx
TTITLE10=FANTASTIC VOYAGE
TTITLE11=Snow Jewel
TTITLE12=NOW.COM〜サガと純情〜
TTITLE13=BASKET BALL
TTITLE14=もう少しだけこのままで
TTITLE15=（ドラゴンダッシュ） - 素敵なカンケイ
EXTD=YEAR: 2003
EXTT0=
EXTT1=
EXTT2=
EXTT3=
EXTT4=
EXTT5=
EXTT6=
EXTT7=
EXTT8=
EXTT9=
EXTT10=
EXTT11=
EXTT12=
EXTT13=
EXTT14=
EXTT15=
PLAYORDER=
